<svg width="13" height="13" viewBox="0 0 13 13" fill="none" xmlns="http://www.w3.org/2000/svg">
<path d="M6.59389 12.2698C9.94986 12.2698 12.6801 9.51765 12.6801 6.1349C12.6801 2.75215 9.94986 0 6.59389 0C3.23792 0 0.507629 2.75211 0.507629 6.13486C0.507629 9.51761 3.23792 12.2698 6.59389 12.2698ZM4.63818 8.04927C4.81522 7.77865 5.17817 7.70268 5.44879 7.8798C5.84316 8.13773 5.9919 8.16151 6.51226 8.15788C7.02016 8.15452 7.31486 7.77595 7.37374 7.42562C7.40239 7.25521 7.41336 6.83909 6.89765 6.65678C6.29274 6.44292 5.67366 6.1985 5.24297 5.86069C4.81229 5.52288 4.61507 4.93971 4.72832 4.33886C4.8511 3.68749 5.30548 3.16897 5.91418 2.98564C5.91968 2.984 5.92507 2.98268 5.93057 2.98104V2.75906C5.93057 2.43566 6.19276 2.17347 6.51616 2.17347C6.83956 2.17347 7.10175 2.43566 7.10175 2.75906V2.94414C7.49948 3.03909 7.77725 3.22105 7.89003 3.30534C8.14906 3.49901 8.20207 3.86594 8.00844 4.125C7.8148 4.38407 7.44787 4.43708 7.18881 4.24337C7.0688 4.15366 6.73716 3.9608 6.25194 4.10701C5.96848 4.19242 5.89497 4.4721 5.8792 4.55576C5.84824 4.72016 5.88298 4.87425 5.96575 4.93913C6.26428 5.17329 6.80169 5.38062 7.28797 5.55251C8.18466 5.86947 8.68327 6.70023 8.52871 7.61976C8.45286 8.07094 8.22588 8.48951 7.88956 8.79851C7.66048 9.00901 7.39384 9.15908 7.10175 9.24477V9.51066C7.10175 9.83406 6.83956 10.0963 6.51616 10.0963C6.19276 10.0963 5.93057 9.83406 5.93057 9.51066V9.30317C5.55193 9.25726 5.23407 9.13885 4.80761 8.85988C4.53703 8.68284 4.46113 8.31989 4.63818 8.04927Z" fill="#B1B1B1"/>
</svg>
