<svg width="10" height="9" viewBox="0 0 10 9" fill="none" xmlns="http://www.w3.org/2000/svg">
<path d="M6.91557 4.42589C7.14811 3.12718 6.95982 1.98468 5.99436 1.01851C5.33744 0.36164 4.45854 0 3.51956 0C3.36147 0 3.20507 0.0103125 3.05069 0.0307421C2.82526 0.0606639 2.63655 0.216211 2.56366 0.43164C2.49077 0.646991 2.54643 0.885116 2.70722 1.0459L3.51643 1.84707V3.51558H1.85108L1.04788 2.70113C0.887453 2.5407 0.649836 2.48519 0.434759 2.55757C0.219759 2.62996 0.0642515 2.81785 0.0333532 3.04265C-0.145162 4.34253 0.418079 5.66311 1.56726 6.43889C2.52241 7.08241 3.40499 7.09835 4.43163 6.91327L6.27229 8.75694L6.68592 8.34331C7.29943 7.72979 8.16353 7.52624 8.95064 7.73561L9.5865 7.09975L6.91557 4.42589Z" fill="#B1B1B1"/>
</svg>
