<svg width="442" height="204" viewBox="0 0 442 204" fill="none" xmlns="http://www.w3.org/2000/svg">
<rect x="32" y="11" width="410" height="1" fill="#F3F3F5"/>
<rect x="32" y="44" width="410" height="1" fill="#F3F3F5"/>
<rect x="32" y="77" width="410" height="1" fill="#F3F3F5"/>
<rect x="32" y="110" width="410" height="1" fill="#F3F3F5"/>
<rect x="32" y="143" width="410" height="1" fill="#F3F3F5"/>
<rect x="32" y="176" width="410" height="1" fill="#F3F3F5"/>
<path d="M4.3299 12.1193C5.99183 12.1193 7.21058 10.892 7.21058 9.22159C7.21058 7.52983 6.03445 6.28977 4.43217 6.28977C3.84411 6.28977 3.27308 6.49858 2.91513 6.78409H2.86399L3.17081 4.21023H6.81854V3.27273H2.28445L1.75604 7.56818L2.74467 7.6875C3.10689 7.42756 3.72479 7.24006 4.26172 7.24432C5.37393 7.25284 6.18786 8.09659 6.18786 9.23864C6.18786 10.3594 5.40376 11.1818 4.3299 11.1818C3.43501 11.1818 2.72337 10.6065 2.6424 9.81818H1.61967C1.68359 11.1477 2.8299 12.1193 4.3299 12.1193ZM11.75 12.1193C13.6761 12.1193 14.7841 10.4872 14.7841 7.63636C14.7841 4.80682 13.6591 3.15341 11.75 3.15341C9.84091 3.15341 8.71591 4.80682 8.71591 7.63636C8.71591 10.4872 9.82386 12.1193 11.75 12.1193ZM11.75 11.1818C10.4801 11.1818 9.73864 9.90767 9.73864 7.63636C9.73864 5.36932 10.4886 4.07386 11.75 4.07386C13.0114 4.07386 13.7614 5.36932 13.7614 7.63636C13.7614 9.90767 13.0199 11.1818 11.75 11.1818ZM19.25 12.1193C21.1761 12.1193 22.2841 10.4872 22.2841 7.63636C22.2841 4.80682 21.1591 3.15341 19.25 3.15341C17.3409 3.15341 16.2159 4.80682 16.2159 7.63636C16.2159 10.4872 17.3239 12.1193 19.25 12.1193ZM19.25 11.1818C17.9801 11.1818 17.2386 9.90767 17.2386 7.63636C17.2386 5.36932 17.9886 4.07386 19.25 4.07386C20.5114 4.07386 21.2614 5.36932 21.2614 7.63636C21.2614 9.90767 20.5199 11.1818 19.25 11.1818Z" fill="#718EBF"/>
<path d="M1.99964 43.2102H6.1076V45H7.11328V43.2102H8.30646V42.2727H7.11328V36.2727H5.83487L1.99964 42.3409V43.2102ZM6.1076 42.2727H3.14169V42.2045L6.03942 37.6193H6.1076V42.2727ZM12.75 45.1193C14.6761 45.1193 15.7841 43.4872 15.7841 40.6364C15.7841 37.8068 14.6591 36.1534 12.75 36.1534C10.8409 36.1534 9.71591 37.8068 9.71591 40.6364C9.71591 43.4872 10.8239 45.1193 12.75 45.1193ZM12.75 44.1818C11.4801 44.1818 10.7386 42.9077 10.7386 40.6364C10.7386 38.3693 11.4886 37.0739 12.75 37.0739C14.0114 37.0739 14.7614 38.3693 14.7614 40.6364C14.7614 42.9077 14.0199 44.1818 12.75 44.1818ZM20.25 45.1193C22.1761 45.1193 23.2841 43.4872 23.2841 40.6364C23.2841 37.8068 22.1591 36.1534 20.25 36.1534C18.3409 36.1534 17.2159 37.8068 17.2159 40.6364C17.2159 43.4872 18.3239 45.1193 20.25 45.1193ZM20.25 44.1818C18.9801 44.1818 18.2386 42.9077 18.2386 40.6364C18.2386 38.3693 18.9886 37.0739 20.25 37.0739C21.5114 37.0739 22.2614 38.3693 22.2614 40.6364C22.2614 42.9077 21.5199 44.1818 20.25 44.1818Z" fill="#718EBF"/>
<path d="M5.21165 78.1193C6.90341 78.1193 8.16051 77.0582 8.16051 75.6307C8.16051 74.5227 7.50426 73.7173 6.40483 73.5341V73.4659C7.28693 73.1974 7.83665 72.473 7.83665 71.4886C7.83665 70.2528 6.8608 69.1534 5.24574 69.1534C3.73722 69.1534 2.48438 70.0824 2.43324 71.4545H3.45597C3.49432 70.5852 4.32102 70.0739 5.22869 70.0739C6.19176 70.0739 6.81392 70.6577 6.81392 71.5398C6.81392 72.4602 6.09375 73.0568 5.05824 73.0568H4.35938V73.9943H5.05824C6.38352 73.9943 7.12074 74.6676 7.12074 75.6307C7.12074 76.5554 6.31534 77.1818 5.1946 77.1818C4.18466 77.1818 3.38352 76.6619 3.3196 75.8182H2.24574C2.30966 77.1903 3.51989 78.1193 5.21165 78.1193ZM12.75 78.1193C14.6761 78.1193 15.7841 76.4872 15.7841 73.6364C15.7841 70.8068 14.6591 69.1534 12.75 69.1534C10.8409 69.1534 9.71591 70.8068 9.71591 73.6364C9.71591 76.4872 10.8239 78.1193 12.75 78.1193ZM12.75 77.1818C11.4801 77.1818 10.7386 75.9077 10.7386 73.6364C10.7386 71.3693 11.4886 70.0739 12.75 70.0739C14.0114 70.0739 14.7614 71.3693 14.7614 73.6364C14.7614 75.9077 14.0199 77.1818 12.75 77.1818ZM20.25 78.1193C22.1761 78.1193 23.2841 76.4872 23.2841 73.6364C23.2841 70.8068 22.1591 69.1534 20.25 69.1534C18.3409 69.1534 17.2159 70.8068 17.2159 73.6364C17.2159 76.4872 18.3239 78.1193 20.25 78.1193ZM20.25 77.1818C18.9801 77.1818 18.2386 75.9077 18.2386 73.6364C18.2386 71.3693 18.9886 70.0739 20.25 70.0739C21.5114 70.0739 22.2614 71.3693 22.2614 73.6364C22.2614 75.9077 21.5199 77.1818 20.25 77.1818Z" fill="#718EBF"/>
<path d="M1.63778 111H7.14347V110.062H3.08665V109.994L5.04688 107.898C6.54688 106.291 6.99006 105.541 6.99006 104.574C6.99006 103.227 5.89915 102.153 4.36506 102.153C2.83523 102.153 1.67188 103.193 1.67188 104.727H2.67756C2.67756 103.734 3.32102 103.074 4.33097 103.074C5.27699 103.074 6.00142 103.653 6.00142 104.574C6.00142 105.379 5.52841 105.976 4.51847 107.08L1.63778 110.233V111ZM11.75 111.119C13.6761 111.119 14.7841 109.487 14.7841 106.636C14.7841 103.807 13.6591 102.153 11.75 102.153C9.84091 102.153 8.71591 103.807 8.71591 106.636C8.71591 109.487 9.82386 111.119 11.75 111.119ZM11.75 110.182C10.4801 110.182 9.73864 108.908 9.73864 106.636C9.73864 104.369 10.4886 103.074 11.75 103.074C13.0114 103.074 13.7614 104.369 13.7614 106.636C13.7614 108.908 13.0199 110.182 11.75 110.182ZM19.25 111.119C21.1761 111.119 22.2841 109.487 22.2841 106.636C22.2841 103.807 21.1591 102.153 19.25 102.153C17.3409 102.153 16.2159 103.807 16.2159 106.636C16.2159 109.487 17.3239 111.119 19.25 111.119ZM19.25 110.182C17.9801 110.182 17.2386 108.908 17.2386 106.636C17.2386 104.369 17.9886 103.074 19.25 103.074C20.5114 103.074 21.2614 104.369 21.2614 106.636C21.2614 108.908 20.5199 110.182 19.25 110.182Z" fill="#718EBF"/>
<path d="M4.39347 135.273H3.33665L1.15483 136.722V137.795L3.28551 136.381H3.33665V144H4.39347V135.273ZM9.75 144.119C11.6761 144.119 12.7841 142.487 12.7841 139.636C12.7841 136.807 11.6591 135.153 9.75 135.153C7.84091 135.153 6.71591 136.807 6.71591 139.636C6.71591 142.487 7.82386 144.119 9.75 144.119ZM9.75 143.182C8.48011 143.182 7.73864 141.908 7.73864 139.636C7.73864 137.369 8.48864 136.074 9.75 136.074C11.0114 136.074 11.7614 137.369 11.7614 139.636C11.7614 141.908 11.0199 143.182 9.75 143.182ZM17.25 144.119C19.1761 144.119 20.2841 142.487 20.2841 139.636C20.2841 136.807 19.1591 135.153 17.25 135.153C15.3409 135.153 14.2159 136.807 14.2159 139.636C14.2159 142.487 15.3239 144.119 17.25 144.119ZM17.25 143.182C15.9801 143.182 15.2386 141.908 15.2386 139.636C15.2386 137.369 15.9886 136.074 17.25 136.074C18.5114 136.074 19.2614 137.369 19.2614 139.636C19.2614 141.908 18.5199 143.182 17.25 143.182Z" fill="#718EBF"/>
<path d="M17.25 177.119C19.1761 177.119 20.2841 175.487 20.2841 172.636C20.2841 169.807 19.1591 168.153 17.25 168.153C15.3409 168.153 14.2159 169.807 14.2159 172.636C14.2159 175.487 15.3239 177.119 17.25 177.119ZM17.25 176.182C15.9801 176.182 15.2386 174.908 15.2386 172.636C15.2386 170.369 15.9886 169.074 17.25 169.074C18.5114 169.074 19.2614 170.369 19.2614 172.636C19.2614 174.908 18.5199 176.182 17.25 176.182Z" fill="#718EBF"/>
<path d="M52.9428 194.455H53.9656C53.9187 193.138 52.7042 192.153 51.0167 192.153C49.3462 192.153 48.0337 193.125 48.0337 194.591C48.0337 195.767 48.886 196.466 50.2496 196.858L51.3235 197.165C52.244 197.42 53.0621 197.744 53.0621 198.614C53.0621 199.568 52.1417 200.199 50.9315 200.199C49.8917 200.199 48.9712 199.739 48.886 198.75H47.7951C47.8974 200.182 49.0565 201.153 50.9315 201.153C52.9428 201.153 54.0849 200.045 54.0849 198.631C54.0849 196.994 52.5337 196.466 51.6303 196.227L50.744 195.989C50.0962 195.818 49.0565 195.477 49.0565 194.54C49.0565 193.705 49.8235 193.091 50.9826 193.091C52.0394 193.091 52.8406 193.594 52.9428 194.455ZM57.6122 201.153C58.7543 201.153 59.3509 200.54 59.5554 200.114H59.6065V201H60.6122V196.688C60.6122 194.608 59.027 194.369 58.1918 194.369C57.2031 194.369 56.0781 194.71 55.5668 195.903L56.5213 196.244C56.7429 195.767 57.267 195.256 58.2259 195.256C59.1506 195.256 59.6065 195.746 59.6065 196.585V196.619C59.6065 197.105 59.1122 197.062 57.919 197.216C56.7045 197.374 55.3793 197.642 55.3793 199.142C55.3793 200.42 56.3679 201.153 57.6122 201.153ZM57.7656 200.25C56.9645 200.25 56.3849 199.892 56.3849 199.193C56.3849 198.426 57.0838 198.188 57.8679 198.085C58.294 198.034 59.4361 197.915 59.6065 197.71V198.631C59.6065 199.449 58.9588 200.25 57.7656 200.25ZM65.2944 194.455H63.8967V192.886H62.891V194.455H61.9023V195.307H62.891V199.398C62.891 200.54 63.8114 201.085 64.6637 201.085C65.0387 201.085 65.2773 201.017 65.4137 200.966L65.2092 200.062C65.1239 200.08 64.9876 200.114 64.766 200.114C64.3228 200.114 63.8967 199.977 63.8967 199.125V195.307H65.2944V194.455Z" fill="#718EBF"/>
<rect x="42" y="15" width="10" height="161" rx="5" fill="#1814F3"/>
<rect x="60" y="95" width="10" height="81" rx="5" fill="#16DBCC"/>
<path d="M110.007 194.455H111.03C110.983 193.138 109.769 192.153 108.081 192.153C106.411 192.153 105.098 193.125 105.098 194.591C105.098 195.767 105.95 196.466 107.314 196.858L108.388 197.165C109.308 197.42 110.127 197.744 110.127 198.614C110.127 199.568 109.206 200.199 107.996 200.199C106.956 200.199 106.036 199.739 105.95 198.75H104.86C104.962 200.182 106.121 201.153 107.996 201.153C110.007 201.153 111.149 200.045 111.149 198.631C111.149 196.994 109.598 196.466 108.695 196.227L107.808 195.989C107.161 195.818 106.121 195.477 106.121 194.54C106.121 193.705 106.888 193.091 108.047 193.091C109.104 193.091 109.905 193.594 110.007 194.455ZM116.876 198.324C116.876 199.551 115.938 200.114 115.188 200.114C114.353 200.114 113.756 199.5 113.756 198.545V194.455H112.751V198.614C112.751 200.284 113.637 201.085 114.864 201.085C115.853 201.085 116.501 200.557 116.807 199.892H116.876V201H117.881V194.455H116.876V198.324ZM120.729 197.062C120.729 195.92 121.436 195.273 122.399 195.273C123.333 195.273 123.899 195.882 123.899 196.909V201H124.905V196.841C124.905 195.17 124.014 194.369 122.689 194.369C121.7 194.369 121.087 194.812 120.78 195.477H120.695V194.455H119.723V201H120.729V197.062Z" fill="#718EBF"/>
<rect x="101" y="62" width="10" height="114" rx="5" fill="#1814F3"/>
<rect x="119" y="136" width="10" height="40" rx="5" fill="#16DBCC"/>
<path d="M163.129 192.273V201H164.118V194.369H164.203L166.93 201H167.885L170.612 194.369H170.697V201H171.686V192.273H170.425L167.459 199.517H167.356L164.39 192.273H163.129ZM176.328 201.136C178.1 201.136 179.294 199.79 179.294 197.761C179.294 195.716 178.1 194.369 176.328 194.369C174.555 194.369 173.362 195.716 173.362 197.761C173.362 199.79 174.555 201.136 176.328 201.136ZM176.328 200.233C174.981 200.233 174.367 199.074 174.367 197.761C174.367 196.449 174.981 195.273 176.328 195.273C177.674 195.273 178.288 196.449 178.288 197.761C178.288 199.074 177.674 200.233 176.328 200.233ZM181.834 197.062C181.834 195.92 182.542 195.273 183.505 195.273C184.438 195.273 185.005 195.882 185.005 196.909V201H186.01V196.841C186.01 195.17 185.12 194.369 183.795 194.369C182.806 194.369 182.192 194.812 181.885 195.477H181.8V194.455H180.829V201H181.834V197.062Z" fill="#718EBF"/>
<rect x="160" y="64" width="10" height="112" rx="5" fill="#1814F3"/>
<rect x="178" y="87" width="10" height="89" rx="5" fill="#16DBCC"/>
<path d="M223.697 193.21H226.441V201H227.498V193.21H230.242V192.273H223.697V193.21ZM234.971 198.324C234.971 199.551 234.034 200.114 233.284 200.114C232.449 200.114 231.852 199.5 231.852 198.545V194.455H230.846V198.614C230.846 200.284 231.733 201.085 232.96 201.085C233.949 201.085 234.596 200.557 234.903 199.892H234.971V201H235.977V194.455H234.971V198.324ZM240.563 201.136C241.893 201.136 242.864 200.472 243.171 199.483L242.2 199.21C241.944 199.892 241.352 200.233 240.563 200.233C239.383 200.233 238.569 199.47 238.522 198.068H243.273V197.642C243.273 195.205 241.825 194.369 240.461 194.369C238.688 194.369 237.512 195.767 237.512 197.778C237.512 199.79 238.671 201.136 240.563 201.136ZM238.522 197.199C238.59 196.18 239.31 195.273 240.461 195.273C241.552 195.273 242.251 196.091 242.251 197.199H238.522Z" fill="#718EBF"/>
<rect x="219" y="15" width="10" height="161" rx="5" fill="#1814F3"/>
<rect x="237" y="50" width="10" height="126" rx="5" fill="#16DBCC"/>
<path d="M282.033 201H283.124L285.05 194.045H285.118L287.044 201H288.135L290.521 192.273H289.447L287.624 199.381H287.538L285.68 192.273H284.487L282.629 199.381H282.544L280.72 192.273H279.646L282.033 201ZM293.837 201.136C295.166 201.136 296.138 200.472 296.445 199.483L295.473 199.21C295.217 199.892 294.625 200.233 293.837 200.233C292.656 200.233 291.842 199.47 291.795 198.068H296.547V197.642C296.547 195.205 295.098 194.369 293.734 194.369C291.962 194.369 290.786 195.767 290.786 197.778C290.786 199.79 291.945 201.136 293.837 201.136ZM291.795 197.199C291.864 196.18 292.584 195.273 293.734 195.273C294.825 195.273 295.524 196.091 295.524 197.199H291.795ZM300.548 201.136C301.81 201.136 302.236 200.352 302.457 199.994H302.577V201H303.548V192.273H302.543V195.494H302.457C302.236 195.153 301.844 194.369 300.565 194.369C298.912 194.369 297.77 195.682 297.77 197.744C297.77 199.824 298.912 201.136 300.548 201.136ZM300.685 200.233C299.423 200.233 298.776 199.125 298.776 197.727C298.776 196.347 299.406 195.273 300.685 195.273C301.912 195.273 302.56 196.261 302.56 197.727C302.56 199.21 301.895 200.233 300.685 200.233Z" fill="#718EBF"/>
<rect x="278" y="124" width="10" height="52" rx="5" fill="#1814F3"/>
<rect x="296" y="99" width="10" height="77" rx="5" fill="#16DBCC"/>
<path d="M340.699 193.21H343.443V201H344.5V193.21H347.244V192.273H340.699V193.21ZM349.744 197.062C349.744 195.92 350.473 195.273 351.466 195.273C352.412 195.273 352.983 195.869 352.983 196.909V201H353.989V196.841C353.989 195.158 353.094 194.369 351.756 194.369C350.725 194.369 350.137 194.8 349.83 195.477H349.744V192.273H348.739V201H349.744V197.062ZM359.954 198.324C359.954 199.551 359.016 200.114 358.266 200.114C357.431 200.114 356.834 199.5 356.834 198.545V194.455H355.829V198.614C355.829 200.284 356.715 201.085 357.942 201.085C358.931 201.085 359.579 200.557 359.885 199.892H359.954V201H360.959V194.455H359.954V198.324Z" fill="#718EBF"/>
<rect x="337" y="41" width="10" height="135" rx="5" fill="#1814F3"/>
<rect x="355" y="92" width="10" height="84" rx="5" fill="#16DBCC"/>
<path d="M404.414 201H405.471V197.097H409.255V196.159H405.471V193.21H409.647V192.273H404.414V201ZM411.251 201H412.256V196.858C412.256 195.972 412.955 195.324 413.91 195.324C414.178 195.324 414.455 195.375 414.523 195.392V194.369C414.408 194.361 414.144 194.352 413.995 194.352C413.211 194.352 412.529 194.795 412.29 195.443H412.222V194.455H411.251V201ZM415.715 201H416.721V194.455H415.715V201ZM416.227 193.364C416.619 193.364 416.943 193.057 416.943 192.682C416.943 192.307 416.619 192 416.227 192C415.835 192 415.511 192.307 415.511 192.682C415.511 193.057 415.835 193.364 416.227 193.364Z" fill="#718EBF"/>
<rect x="396" y="45" width="10" height="131" rx="5" fill="#1814F3"/>
<rect x="414" y="68" width="10" height="108" rx="5" fill="#16DBCC"/>
</svg>
