<svg width="196" height="169" viewBox="0 0 196 169" fill="none" xmlns="http://www.w3.org/2000/svg">
<path d="M1.71751 152L2.59535 149.528H6.12376L7.0016 152H8.10955L4.90501 143.273H3.8141L0.609553 152H1.71751ZM2.92773 148.591L4.32546 144.653H4.39364L5.79137 148.591H2.92773ZM13.4576 149.324C13.4576 150.551 12.5201 151.114 11.7701 151.114C10.9348 151.114 10.3382 150.5 10.3382 149.545V145.455H9.33256V149.614C9.33256 151.284 10.2189 152.085 11.4462 152.085C12.4348 152.085 13.0826 151.557 13.3894 150.892H13.4576V152H14.4632V145.455H13.4576V149.324ZM18.9473 154.591C20.5154 154.591 21.7768 153.875 21.7768 152.188V145.455H20.8052V146.494H20.7029C20.4814 146.153 20.0723 145.369 18.7939 145.369C17.1404 145.369 15.9984 146.682 15.9984 148.693C15.9984 150.739 17.1916 151.898 18.7768 151.898C20.0552 151.898 20.4643 151.148 20.6859 150.79H20.7711V152.119C20.7711 153.21 20.0041 153.705 18.9473 153.705C17.7583 153.705 17.3407 153.078 17.0723 152.716L16.2711 153.278C16.6802 153.964 17.4856 154.591 18.9473 154.591ZM18.9132 150.994C17.6518 150.994 17.0041 150.04 17.0041 148.676C17.0041 147.347 17.6348 146.273 18.9132 146.273C20.1404 146.273 20.7882 147.261 20.7882 148.676C20.7882 150.125 20.1234 150.994 18.9132 150.994Z" fill="#718EBF"/>
<rect x="1" y="65" width="22" height="69" rx="7" fill="#EDF0F7"/>
<path d="M40.8549 145.455H41.8777C41.8308 144.138 40.6163 143.153 38.9288 143.153C37.2583 143.153 35.9458 144.125 35.9458 145.591C35.9458 146.767 36.7981 147.466 38.1618 147.858L39.2356 148.165C40.1561 148.42 40.9743 148.744 40.9743 149.614C40.9743 150.568 40.0538 151.199 38.8436 151.199C37.8038 151.199 36.8833 150.739 36.7981 149.75H35.7072C35.8095 151.182 36.9686 152.153 38.8436 152.153C40.8549 152.153 41.997 151.045 41.997 149.631C41.997 147.994 40.4458 147.466 39.5424 147.227L38.6561 146.989C38.0083 146.818 36.9686 146.477 36.9686 145.54C36.9686 144.705 37.7356 144.091 38.8947 144.091C39.9515 144.091 40.7527 144.594 40.8549 145.455ZM46.3425 152.136C47.6721 152.136 48.6436 151.472 48.9505 150.483L47.9789 150.21C47.7232 150.892 47.1309 151.233 46.3425 151.233C45.1621 151.233 44.3482 150.47 44.3013 149.068H49.0527V148.642C49.0527 146.205 47.6039 145.369 46.2402 145.369C44.4675 145.369 43.2914 146.767 43.2914 148.778C43.2914 150.79 44.4505 152.136 46.3425 152.136ZM44.3013 148.199C44.3695 147.18 45.0897 146.273 46.2402 146.273C47.3311 146.273 48.03 147.091 48.03 148.199H44.3013ZM50.5826 154.455H51.5882V150.994H51.6735C51.8951 151.352 52.3212 152.136 53.5826 152.136C55.2189 152.136 56.361 150.824 56.361 148.744C56.361 146.682 55.2189 145.369 53.5655 145.369C52.2871 145.369 51.8951 146.153 51.6735 146.494H51.5542V145.455H50.5826V154.455ZM51.5712 148.727C51.5712 147.261 52.2189 146.273 53.4462 146.273C54.7246 146.273 55.3553 147.347 55.3553 148.727C55.3553 150.125 54.7076 151.233 53.4462 151.233C52.236 151.233 51.5712 150.21 51.5712 148.727Z" fill="#718EBF"/>
<rect x="35" y="23" width="22" height="111" rx="7" fill="#EDF0F7"/>
<path d="M78.8189 147.636C78.8189 144.875 77.1996 143.153 74.9666 143.153C72.7337 143.153 71.1143 144.875 71.1143 147.636C71.1143 150.398 72.7337 152.119 74.9666 152.119C77.1996 152.119 78.8189 150.398 78.8189 147.636ZM77.7962 147.636C77.7962 149.903 76.5518 151.131 74.9666 151.131C73.3814 151.131 72.1371 149.903 72.1371 147.636C72.1371 145.369 73.3814 144.142 74.9666 144.142C76.5518 144.142 77.7962 145.369 77.7962 147.636ZM83.1186 152.136C84.5675 152.136 85.522 151.25 85.6925 150.091H84.6868C84.4993 150.807 83.9027 151.233 83.1186 151.233C81.9254 151.233 81.1584 150.244 81.1584 148.727C81.1584 147.244 81.9425 146.273 83.1186 146.273C84.005 146.273 84.5334 146.818 84.6868 147.415H85.6925C85.522 146.188 84.4822 145.369 83.1016 145.369C81.3288 145.369 80.1527 146.767 80.1527 148.761C80.1527 150.722 81.2777 152.136 83.1186 152.136ZM90.0092 145.455H88.6115V143.886H87.6058V145.455H86.6172V146.307H87.6058V150.398C87.6058 151.54 88.5263 152.085 89.3786 152.085C89.7536 152.085 89.9922 152.017 90.1286 151.966L89.924 151.062C89.8388 151.08 89.7024 151.114 89.4808 151.114C89.0376 151.114 88.6115 150.977 88.6115 150.125V146.307H90.0092V145.455Z" fill="#718EBF"/>
<rect x="69" y="60" width="22" height="74" rx="7" fill="#EDF0F7"/>
<path d="M111.157 144.273H110.117V151.142H110.032L105.259 144.273H104.237V153H105.293V146.148H105.379L110.134 153H111.157V144.273ZM115.794 153.136C117.567 153.136 118.76 151.79 118.76 149.761C118.76 147.716 117.567 146.369 115.794 146.369C114.022 146.369 112.828 147.716 112.828 149.761C112.828 151.79 114.022 153.136 115.794 153.136ZM115.794 152.233C114.448 152.233 113.834 151.074 113.834 149.761C113.834 148.449 114.448 147.273 115.794 147.273C117.141 147.273 117.755 148.449 117.755 149.761C117.755 151.074 117.141 152.233 115.794 152.233ZM125.413 146.455H124.322L122.516 151.67H122.447L120.641 146.455H119.55L121.97 153H122.993L125.413 146.455Z" fill="#718EBF"/>
<rect x="104" y="95" width="22" height="39" rx="7" fill="#EDF0F7"/>
<path d="M142.094 152C144.753 152 146.253 150.347 146.253 147.619C146.253 144.909 144.753 143.273 142.213 143.273H139.401V152H142.094ZM140.457 151.062V144.21H142.145C144.19 144.21 145.23 145.506 145.23 147.619C145.23 149.75 144.19 151.062 142.026 151.062H140.457ZM150.634 152.136C151.963 152.136 152.935 151.472 153.241 150.483L152.27 150.21C152.014 150.892 151.422 151.233 150.634 151.233C149.453 151.233 148.639 150.47 148.592 149.068H153.344V148.642C153.344 146.205 151.895 145.369 150.531 145.369C148.759 145.369 147.582 146.767 147.582 148.778C147.582 150.79 148.741 152.136 150.634 152.136ZM148.592 148.199C148.661 147.18 149.381 146.273 150.531 146.273C151.622 146.273 152.321 147.091 152.321 148.199H148.592ZM157.533 152.136C158.982 152.136 159.936 151.25 160.107 150.091H159.101C158.913 150.807 158.317 151.233 157.533 151.233C156.339 151.233 155.572 150.244 155.572 148.727C155.572 147.244 156.357 146.273 157.533 146.273C158.419 146.273 158.947 146.818 159.101 147.415H160.107C159.936 146.188 158.896 145.369 157.516 145.369C155.743 145.369 154.567 146.767 154.567 148.761C154.567 150.722 155.692 152.136 157.533 152.136Z" fill="#718EBF"/>
<g filter="url(#filter0_d_150_513)">
<rect x="139" y="35" width="22" height="99" rx="7" fill="#16DBCC"/>
</g>
<path d="M178.749 143.273V149.511C178.749 150.598 178.229 151.182 177.317 151.182C176.487 151.182 175.886 150.696 175.886 149.955H174.846C174.846 151.297 175.886 152.119 177.317 152.119C178.835 152.119 179.806 151.186 179.806 149.511V143.273H178.749ZM183.714 152.153C184.856 152.153 185.452 151.54 185.657 151.114H185.708V152H186.714V147.688C186.714 145.608 185.129 145.369 184.293 145.369C183.305 145.369 182.18 145.71 181.668 146.903L182.623 147.244C182.844 146.767 183.369 146.256 184.327 146.256C185.252 146.256 185.708 146.746 185.708 147.585V147.619C185.708 148.105 185.214 148.062 184.021 148.216C182.806 148.374 181.481 148.642 181.481 150.142C181.481 151.42 182.469 152.153 183.714 152.153ZM183.867 151.25C183.066 151.25 182.487 150.892 182.487 150.193C182.487 149.426 183.185 149.188 183.969 149.085C184.396 149.034 185.538 148.915 185.708 148.71V149.631C185.708 150.449 185.06 151.25 183.867 151.25ZM189.555 148.062C189.555 146.92 190.262 146.273 191.225 146.273C192.159 146.273 192.725 146.882 192.725 147.909V152H193.731V147.841C193.731 146.17 192.841 145.369 191.515 145.369C190.527 145.369 189.913 145.812 189.606 146.477H189.521V145.455H188.549V152H189.555V148.062Z" fill="#718EBF"/>
<rect x="173" y="69" width="22" height="65" rx="7" fill="#EDF0F7"/>
<defs>
<filter id="filter0_d_150_513" x="104" y="0" width="92" height="169" filterUnits="userSpaceOnUse" color-interpolation-filters="sRGB">
<feFlood flood-opacity="0" result="BackgroundImageFix"/>
<feColorMatrix in="SourceAlpha" type="matrix" values="0 0 0 0 0 0 0 0 0 0 0 0 0 0 0 0 0 0 127 0" result="hardAlpha"/>
<feOffset/>
<feGaussianBlur stdDeviation="17.5"/>
<feColorMatrix type="matrix" values="0 0 0 0 0.0705882 0 0 0 0 0.533333 0 0 0 0 0.494771 0 0 0 0.2 0"/>
<feBlend mode="normal" in2="BackgroundImageFix" result="effect1_dropShadow_150_513"/>
<feBlend mode="normal" in="SourceGraphic" in2="effect1_dropShadow_150_513" result="shape"/>
</filter>
</defs>
</svg>
